<?xml version="1.0" standalone="no"?>
<!DOCTYPE svg PUBLIC "-//W3C//DTD SVG 20010904//EN"
 "http://www.w3.org/TR/2001/REC-SVG-20010904/DTD/svg10.dtd">
<svg version="1.0" xmlns="http://www.w3.org/2000/svg"
 width="700.000000pt" height="700.000000pt" viewBox="0 0 700.000000 700.000000"
 preserveAspectRatio="xMidYMid meet">
<metadata>
Created by potrace 1.11, written by Peter Selinger 2001-2013
</metadata>
<g transform="translate(0.000000,700.000000) scale(0.100000,-0.100000)"
fill="#000000" stroke="none">
<path d="M3210 6266 c0 -245 -4 -447 -8 -450 -5 -3 -48 -12 -98 -20 -342 -58
-693 -204 -959 -401 l-73 -53 -313 314 c-172 173 -318 314 -323 314 -5 0 -100
-92 -212 -204 l-203 -203 318 -316 317 -315 -86 -129 c-129 -193 -207 -351
-281 -570 -45 -133 -96 -350 -98 -420 l-1 -23 -450 0 -450 0 0 -290 0 -290
450 0 450 0 1 -22 c1 -27 3 -41 29 -169 62 -303 210 -637 394 -886 l44 -60
-318 -319 -319 -318 204 -203 c113 -112 208 -203 213 -203 4 0 149 142 321
315 l313 314 47 -34 c25 -19 51 -39 57 -44 38 -32 263 -157 360 -201 96 -43
243 -99 304 -116 100 -26 221 -54 288 -64 l82 -14 0 -447 0 -448 290 0 290 0
0 450 0 449 23 1 c76 3 294 55 441 106 218 76 423 180 598 306 l77 55 313
-314 c171 -173 316 -314 321 -314 11 0 407 395 407 407 0 11 5 5 -338 347
l-291 289 20 26 c212 275 387 684 440 1032 l12 79 449 0 448 0 0 290 0 290
-448 0 -448 0 -13 78 c-12 79 -55 268 -71 312 -58 165 -79 220 -122 310 -60
127 -137 259 -211 362 l-55 77 318 318 319 318 -208 207 -208 207 -316 -317
-316 -318 -128 86 c-71 47 -163 103 -204 125 -40 21 -81 42 -89 46 -143 74
-442 171 -600 194 -25 4 -52 9 -60 10 -8 2 -25 4 -37 4 l-23 1 0 450 0 450
-290 0 -290 0 0 -444z m288 -1307 l-3 -292 -55 -3 c-149 -7 -362 -61 -450
-115 -8 -5 -26 -14 -39 -19 -67 -29 -208 -136 -290 -220 -146 -151 -264 -375
-307 -585 -4 -21 -15 -117 -19 -170 -2 -16 -3 -36 -4 -42 -1 -10 -66 -13 -292
-13 l-291 0 6 103 c3 56 8 116 11 132 28 157 39 206 64 282 69 213 149 370
276 538 281 374 733 634 1183 681 31 4 58 7 59 8 1 0 36 2 77 4 l76 3 -2 -292z"/>
</g>
</svg>
